{
    "accessors" : [
        {
            "bufferView" : 0,
            "componentType" : 5123,
            "count" : 672,
            "max" : [
                259
            ],
            "min" : [
                0
            ],
            "type" : "SCALAR"
        },
        {
            "bufferView" : 1,
            "componentType" : 5126,
            "count" : 260,
            "max" : [
                102.24766540527344,
                41.17656326293945,
                141.04798889160156
            ],
            "min" : [
                -332.9207458496094,
                -43.84904479980469,
                -262.63214111328125
            ],
            "type" : "VEC3"
        },
        {
            "bufferView" : 2,
            "componentType" : 5126,
            "count" : 260,
            "max" : [
                0.9998779296875,
                0.999908447265625,
                1.0
            ],
            "min" : [
                -0.999908447265625,
                -0.999908447265625,
                -1.0
            ],
            "type" : "VEC3"
        },
        {
            "bufferView" : 3,
            "componentType" : 5126,
            "count" : 260,
            "max" : [
                1.0,
                1.0
            ],
            "min" : [
                0.0,
                0.0
            ],
            "type" : "VEC2"
        }
    ],
    "asset" : {
        "generator" : "Khronos Blender glTF 2.0 exporter",
        "version" : "2.0"
    },
    "bufferViews" : [
        {
            "buffer" : 0,
            "byteLength" : 1344,
            "byteOffset" : 0,
            "target" : 34963
        },
        {
            "buffer" : 0,
            "byteLength" : 3120,
            "byteOffset" : 1344,
            "target" : 34962
        },
        {
            "buffer" : 0,
            "byteLength" : 3120,
            "byteOffset" : 4464,
            "target" : 34962
        },
        {
            "buffer" : 0,
            "byteLength" : 2080,
            "byteOffset" : 7584,
            "target" : 34962
        }
    ],
    "buffers" : [
        {
            "byteLength" : 9664,
            "uri" : "data:application/octet-stream;base64,"
        }
    ],
    "materials" : [
        {
            "alphaMode" : "BLEND",
            "name" : "Material.001",
            "pbrMetallicRoughness" : {
                "baseColorFactor" : [
                    1.0,
                    0.0,
                    0.7711712121963501,
                    0.7565619945526123
                ]
            }
        }
    ],
    "meshes" : [
        {
            "name" : "Cap_2_1",
            "primitives" : [
                {
                    "attributes" : {
                        "NORMAL" : 2,
                        "POSITION" : 1,
                        "TEXCOORD_0" : 3
                    },
                    "indices" : 0,
                    "material" : 0
                }
            ]
        }
    ],
    "nodes" : [
        {
            "mesh" : 0,
            "name" : "lj",
            "rotation" : [
                5.960464477539063e-08,
                0.0,
                -0.0,
                1.0
            ],
            "scale" : [
                0.0010425337823107839,
                0.0010425337823107839,
                0.0010425337823107839
            ],
            "translation" : [
                0.13167905807495117,
                -0.0017650239169597626,
                -0.009346842765808105
            ]
        }
    ],
    "scene" : 0,
    "scenes" : [
        {
            "name" : "Scene",
            "nodes" : [
                0
            ]
        }
    ]
}
