{
    "accessors" : [
        {
            "bufferView" : 0,
            "componentType" : 5123,
            "count" : 153,
            "max" : [
                52
            ],
            "min" : [
                0
            ],
            "type" : "SCALAR"
        },
        {
            "bufferView" : 1,
            "componentType" : 5126,
            "count" : 53,
            "max" : [
                228.55441284179688,
                -77.35741424560547,
                -0.15999838709831238
            ],
            "min" : [
                -146.20570373535156,
                -81.69925689697266,
                -403.8399963378906
            ],
            "type" : "VEC3"
        },
        {
            "bufferView" : 2,
            "componentType" : 5126,
            "count" : 53,
            "max" : [
                0.01156651508063078,
                -0.999908447265625,
                -0.0
            ],
            "min" : [
                0.01156651508063078,
                -0.999908447265625,
                -0.0
            ],
            "type" : "VEC3"
        },
        {
            "bufferView" : 3,
            "componentType" : 5126,
            "count" : 53,
            "max" : [
                0.7970269918441772,
                1.0
            ],
            "min" : [
                0.0,
                0.0
            ],
            "type" : "VEC2"
        },
        {
            "bufferView" : 4,
            "componentType" : 5123,
            "count" : 9,
            "max" : [
                4
            ],
            "min" : [
                0
            ],
            "type" : "SCALAR"
        },
        {
            "bufferView" : 5,
            "componentType" : 5126,
            "count" : 5,
            "max" : [
                -29.299034118652344,
                -80.34481811523438,
                -0.16000087559223175
            ],
            "min" : [
                -205.6872100830078,
                -82.38838958740234,
                -403.8399963378906
            ],
            "type" : "VEC3"
        },
        {
            "bufferView" : 6,
            "componentType" : 5126,
            "count" : 5,
            "max" : [
                0.01156651508063078,
                -0.999908447265625,
                -0.0
            ],
            "min" : [
                0.01156651508063078,
                -0.999908447265625,
                -0.0
            ],
            "type" : "VEC3"
        },
        {
            "bufferView" : 7,
            "componentType" : 5126,
            "count" : 5,
            "max" : [
                0.4369798004627228,
                1.0
            ],
            "min" : [
                0.0,
                0.0
            ],
            "type" : "VEC2"
        },
        {
            "bufferView" : 8,
            "componentType" : 5123,
            "count" : 153,
            "max" : [
                52
            ],
            "min" : [
                0
            ],
            "type" : "SCALAR"
        },
        {
            "bufferView" : 9,
            "componentType" : 5126,
            "count" : 53,
            "max" : [
                227.62762451171875,
                2.6372177600860596,
                -0.15999838709831238
            ],
            "min" : [
                -147.1324920654297,
                -1.7046281099319458,
                -403.8399963378906
            ],
            "type" : "VEC3"
        },
        {
            "bufferView" : 10,
            "componentType" : 5126,
            "count" : 53,
            "max" : [
                -0.01156651508063078,
                0.999908447265625,
                -0.0
            ],
            "min" : [
                -0.01156651508063078,
                0.999908447265625,
                -0.0
            ],
            "type" : "VEC3"
        },
        {
            "bufferView" : 11,
            "componentType" : 5126,
            "count" : 53,
            "max" : [
                1.0,
                0.9284216165542603
            ],
            "min" : [
                0.0,
                0.0
            ],
            "type" : "VEC2"
        },
        {
            "bufferView" : 12,
            "componentType" : 5123,
            "count" : 30,
            "max" : [
                17
            ],
            "min" : [
                0
            ],
            "type" : "SCALAR"
        },
        {
            "bufferView" : 13,
            "componentType" : 5126,
            "count" : 18,
            "max" : [
                -29.299034118652344,
                -0.3501863479614258,
                -0.16000087559223175
            ],
            "min" : [
                -206.61399841308594,
                -82.38838958740234,
                -403.8399963378906
            ],
            "type" : "VEC3"
        },
        {
            "bufferView" : 14,
            "componentType" : 5126,
            "count" : 18,
            "max" : [
                0.939664900302887,
                0.010864589363336563,
                1.0
            ],
            "min" : [
                -0.9700613617897034,
                -0.011230811476707458,
                -1.0
            ],
            "type" : "VEC3"
        },
        {
            "bufferView" : 15,
            "componentType" : 5126,
            "count" : 18,
            "max" : [
                0.9999329447746277,
                0.011584945023059845,
                0.9397282004356384,
                -1.0
            ],
            "min" : [
                -0.9999329447746277,
                -0.011584890075027943,
                -0.9701332449913025,
                -1.0
            ],
            "type" : "VEC4"
        },
        {
            "bufferView" : 16,
            "componentType" : 5126,
            "count" : 18,
            "max" : [
                1.0,
                1.0
            ],
            "min" : [
                0.0,
                0.0
            ],
            "type" : "VEC2"
        },
        {
            "bufferView" : 17,
            "componentType" : 5123,
            "count" : 318,
            "max" : [
                125
            ],
            "min" : [
                0
            ],
            "type" : "SCALAR"
        },
        {
            "bufferView" : 18,
            "componentType" : 5126,
            "count" : 126,
            "max" : [
                228.55441284179688,
                2.6372177600860596,
                -0.15999838709831238
            ],
            "min" : [
                -147.1324920654297,
                -81.69925689697266,
                -403.8399963378906
            ],
            "type" : "VEC3"
        },
        {
            "bufferView" : 19,
            "componentType" : 5126,
            "count" : 126,
            "max" : [
                0.9998779296875,
                0.01156651508063078,
                1.0
            ],
            "min" : [
                -0.999908447265625,
                -0.01156651508063078,
                -1.0
            ],
            "type" : "VEC3"
        },
        {
            "bufferView" : 20,
            "componentType" : 5126,
            "count" : 126,
            "max" : [
                0.9999330639839172,
                0.011584891006350517,
                0.9999698400497437,
                -1.0
            ],
            "min" : [
                -0.9999329447746277,
                -0.011584891006350517,
                -1.0,
                -1.0
            ],
            "type" : "VEC4"
        },
        {
            "bufferView" : 21,
            "componentType" : 5126,
            "count" : 126,
            "max" : [
                1.0,
                1.0
            ],
            "min" : [
                0.0,
                0.0
            ],
            "type" : "VEC2"
        },
        {
            "bufferView" : 22,
            "componentType" : 5123,
            "count" : 9,
            "max" : [
                4
            ],
            "min" : [
                0
            ],
            "type" : "SCALAR"
        },
        {
            "bufferView" : 23,
            "componentType" : 5126,
            "count" : 5,
            "max" : [
                -30.225826263427734,
                -0.3501863479614258,
                -0.16000087559223175
            ],
            "min" : [
                -206.61399841308594,
                -2.393760919570923,
                -403.8399963378906
            ],
            "type" : "VEC3"
        },
        {
            "bufferView" : 24,
            "componentType" : 5126,
            "count" : 5,
            "max" : [
                -0.01156651508063078,
                0.999908447265625,
                -0.0
            ],
            "min" : [
                -0.01156651508063078,
                0.999908447265625,
                -0.0
            ],
            "type" : "VEC3"
        },
        {
            "bufferView" : 25,
            "componentType" : 5126,
            "count" : 5,
            "max" : [
                1.0,
                0.4369797706604004
            ],
            "min" : [
                0.0,
                0.0
            ],
            "type" : "VEC2"
        }
    ],
    "asset" : {
        "generator" : "Khronos Blender glTF 2.0 exporter",
        "version" : "2.0"
    },
    "bufferViews" : [
        {
            "buffer" : 0,
            "byteLength" : 306,
            "byteOffset" : 0,
            "target" : 34963
        },
        {
            "buffer" : 0,
            "byteLength" : 636,
            "byteOffset" : 308,
            "target" : 34962
        },
        {
            "buffer" : 0,
            "byteLength" : 636,
            "byteOffset" : 944,
            "target" : 34962
        },
        {
            "buffer" : 0,
            "byteLength" : 424,
            "byteOffset" : 1580,
            "target" : 34962
        },
        {
            "buffer" : 0,
            "byteLength" : 18,
            "byteOffset" : 2004,
            "target" : 34963
        },
        {
            "buffer" : 0,
            "byteLength" : 60,
            "byteOffset" : 2024,
            "target" : 34962
        },
        {
            "buffer" : 0,
            "byteLength" : 60,
            "byteOffset" : 2084,
            "target" : 34962
        },
        {
            "buffer" : 0,
            "byteLength" : 40,
            "byteOffset" : 2144,
            "target" : 34962
        },
        {
            "buffer" : 0,
            "byteLength" : 306,
            "byteOffset" : 2184,
            "target" : 34963
        },
        {
            "buffer" : 0,
            "byteLength" : 636,
            "byteOffset" : 2492,
            "target" : 34962
        },
        {
            "buffer" : 0,
            "byteLength" : 636,
            "byteOffset" : 3128,
            "target" : 34962
        },
        {
            "buffer" : 0,
            "byteLength" : 424,
            "byteOffset" : 3764,
            "target" : 34962
        },
        {
            "buffer" : 0,
            "byteLength" : 60,
            "byteOffset" : 4188,
            "target" : 34963
        },
        {
            "buffer" : 0,
            "byteLength" : 216,
            "byteOffset" : 4248,
            "target" : 34962
        },
        {
            "buffer" : 0,
            "byteLength" : 216,
            "byteOffset" : 4464,
            "target" : 34962
        },
        {
            "buffer" : 0,
            "byteLength" : 288,
            "byteOffset" : 4680,
            "target" : 34962
        },
        {
            "buffer" : 0,
            "byteLength" : 144,
            "byteOffset" : 4968,
            "target" : 34962
        },
        {
            "buffer" : 0,
            "byteLength" : 636,
            "byteOffset" : 5112,
            "target" : 34963
        },
        {
            "buffer" : 0,
            "byteLength" : 1512,
            "byteOffset" : 5748,
            "target" : 34962
        },
        {
            "buffer" : 0,
            "byteLength" : 1512,
            "byteOffset" : 7260,
            "target" : 34962
        },
        {
            "buffer" : 0,
            "byteLength" : 2016,
            "byteOffset" : 8772,
            "target" : 34962
        },
        {
            "buffer" : 0,
            "byteLength" : 1008,
            "byteOffset" : 10788,
            "target" : 34962
        },
        {
            "buffer" : 0,
            "byteLength" : 18,
            "byteOffset" : 11796,
            "target" : 34963
        },
        {
            "buffer" : 0,
            "byteLength" : 60,
            "byteOffset" : 11816,
            "target" : 34962
        },
        {
            "buffer" : 0,
            "byteLength" : 60,
            "byteOffset" : 11876,
            "target" : 34962
        },
        {
            "buffer" : 0,
            "byteLength" : 40,
            "byteOffset" : 11936,
            "target" : 34962
        }
    ],
    "buffers" : [
        {
            "byteLength" : 11976,
            "uri" : "logo1.bin"
        }
    ],
    "materials" : [
        {
            "name" : "default",
            "pbrMetallicRoughness" : {
                "baseColorFactor" : [
                    0.7278922200202942,
                    0.032919228076934814,
                    0.5154393911361694,
                    1.0
                ],
                "metallicFactor" : 0.0
            }
        }
    ],
    "meshes" : [
        {
            "name" : "Cap_2_1",
            "primitives" : [
                {
                    "attributes" : {
                        "NORMAL" : 2,
                        "POSITION" : 1,
                        "TEXCOORD_0" : 3
                    },
                    "indices" : 0,
                    "material" : 0
                }
            ]
        },
        {
            "name" : "Cap_2",
            "primitives" : [
                {
                    "attributes" : {
                        "NORMAL" : 6,
                        "POSITION" : 5,
                        "TEXCOORD_0" : 7
                    },
                    "indices" : 4,
                    "material" : 0
                }
            ]
        },
        {
            "name" : "Cap_1_1",
            "primitives" : [
                {
                    "attributes" : {
                        "NORMAL" : 10,
                        "POSITION" : 9,
                        "TEXCOORD_0" : 11
                    },
                    "indices" : 8,
                    "material" : 0
                }
            ]
        },
        {
            "name" : "Path_1",
            "primitives" : [
                {
                    "attributes" : {
                        "NORMAL" : 14,
                        "POSITION" : 13,
                        "TANGENT" : 15,
                        "TEXCOORD_0" : 16
                    },
                    "indices" : 12,
                    "material" : 0
                }
            ]
        },
        {
            "name" : "Path_2",
            "primitives" : [
                {
                    "attributes" : {
                        "NORMAL" : 19,
                        "POSITION" : 18,
                        "TANGENT" : 20,
                        "TEXCOORD_0" : 21
                    },
                    "indices" : 17,
                    "material" : 0
                }
            ]
        },
        {
            "name" : "Cap_1",
            "primitives" : [
                {
                    "attributes" : {
                        "NORMAL" : 24,
                        "POSITION" : 23,
                        "TEXCOORD_0" : 25
                    },
                    "indices" : 22,
                    "material" : 0
                }
            ]
        }
    ],
    "nodes" : [
        {
            "mesh" : 5,
            "name" : "Cap_1",
            "scale" : [
                0.036775290966033936,
                0.036775290966033936,
                0.036775290966033936
            ]
        },
        {
            "mesh" : 2,
            "name" : "Cap_1_1",
            "scale" : [
                0.036775290966033936,
                0.036775290966033936,
                0.036775290966033936
            ]
        },
        {
            "mesh" : 1,
            "name" : "Cap_2",
            "scale" : [
                0.036775290966033936,
                0.036775290966033936,
                0.036775290966033936
            ]
        },
        {
            "mesh" : 0,
            "name" : "Cap_2_1",
            "scale" : [
                0.036775290966033936,
                0.036775290966033936,
                0.036775290966033936
            ]
        },
        {
            "mesh" : 3,
            "name" : "Path_1",
            "scale" : [
                0.036775290966033936,
                0.036775290966033936,
                0.036775290966033936
            ]
        },
        {
            "mesh" : 4,
            "name" : "Path_2",
            "scale" : [
                0.036775290966033936,
                0.036775290966033936,
                0.036775290966033936
            ]
        }
    ],
    "scene" : 0,
    "scenes" : [
        {
            "name" : "Scene",
            "nodes" : [
                3,
                2,
                1,
                0,
                5,
                4
            ]
        }
    ]
}
